STARTFONT 2.1
FONT jis.jis7600.24
SIZE 24 72 72
FONTBOUNDINGBOX 24 24 0 -3
STARTPROPERTIES 4
FONT_DESCENT 3
FONT_ASCENT 21
DEFAULT_CHAR 1
COPYRIGHT "Copyright (c) 1992 AT&T - All rights reserved."
ENDPROPERTIES
CHARS 148
STARTCHAR ch-1
ENCODING 1
SWIDTH 1000 0
DWIDTH 24 0
BBX 24 24 0 -3
BITMAP
000e00
000c00
080c06
0fffff
0c0000
8c0700
4c060c
6dfffe
6c0000
0c2080
0c38e0
0c30c0
fc60c0
6c58b0
4c8d18
0d0018
180600
180606
13ffff
300600
200600
400600
000600
000600
ENDCHAR
STARTCHAR ch-9
ENCODING 9
SWIDTH 1000 0
DWIDTH 24 0
BBX 24 24 0 -3
BITMAP
000e00
000c00
080c06
0fffff
0c0600
8c0e00
4c0d00
6c18c0
6c3078
0ccf9f
0f0006
0c0000
fcfc0e
6c84cc
4c84cc
0cfccc
1884cc
1884cc
10fccc
3084cc
20840c
40840c
009c7c
008c18
ENDCHAR
STARTCHAR ch-11
ENCODING 11
SWIDTH 1000 0
DWIDTH 24 0
BBX 24 24 0 -3
BITMAP
000e00
000c00
080c06
0fffff
0c0000
8c8030
4cfff8
6cc030
6cc130
0cc7b0
0cdc30
0cc430
fcdfb0
6cd4b0
4cd4b0
0cd4b0
18dfb0
18c410
118412
31851a
2104ca
437f6e
023867
040003
ENDCHAR
STARTCHAR ch-13
ENCODING 13
SWIDTH 1000 0
DWIDTH 24 0
BBX 24 24 0 -3
BITMAP
000e00
000c00
080c06
0fffff
0c0000
8c3fe0
4c3060
6c3060
6c3fe0
0c3060
0c3060
0c3fe0
fc0006
6dffff
4c3000
0c200c
187ffe
18488c
10988c
33110c
20211c
40c218
000cf8
000030
ENDCHAR
STARTCHAR ch-31
ENCODING 31
SWIDTH 1000 0
DWIDTH 24 0
BBX 24 24 0 -3
BITMAP
000e00
000c00
080c06
0fffff
0c0000
8c0000
4c3ff0
6c3030
6c3030
0c3ff0
0c3030
0c3030
fc3ff0
6c0000
4c0000
0c800c
18fffe
18cccc
10cccc
30cccc
20cccc
40ccce
03ffff
000000
ENDCHAR
STARTCHAR ch-32
ENCODING 32
SWIDTH 1000 0
DWIDTH 24 0
BBX 24 24 0 -3
BITMAP
000e00
000c00
080c06
0fffff
0c0000
8c0600
4de63c
6c0d00
6c0d80
0df8fc
0c3060
0c6038
fcc01f
6f7ff6
4c6030
0c6030
187ff0
186030
106030
307ff0
206030
406030
0061f0
006060
ENDCHAR
STARTCHAR ch-33
ENCODING 33
SWIDTH 1000 0
DWIDTH 24 0
BBX 24 24 0 -3
BITMAP
000e00
000c00
080c06
0fffff
0c0600
8c0d00
4c18c0
6c3078
6ccf9f
0f0006
0c7ff0
0c6030
fc6030
6c7ff0
4c6030
0c6030
18fff0
18c000
108000
31bff8
213018
423018
043ff8
003018
ENDCHAR
STARTCHAR ch-34
ENCODING 34
SWIDTH 1000 0
DWIDTH 24 0
BBX 24 24 0 -3
BITMAP
000e00
000c00
080c06
0fffff
0c2000
8c3898
4c30fc
6ca498
6cfe98
0c8c98
0ccd9f
0cad0f
fcae00
6c8c0c
4ffdfe
0d8c8c
188c8c
18ac58
11ac58
312c30
210c70
430c5c
023c8f
041b06
ENDCHAR
STARTCHAR ch-36
ENCODING 36
SWIDTH 1000 0
DWIDTH 24 0
BBX 24 24 0 -3
BITMAP
000e00
000c00
080c06
0fffff
0c0000
8c0800
4c9c06
6cf3ff
6cc066
0cc066
0cc846
0cccc6
fcf49e
6dc10c
4c8000
0c7ffc
18610c
18610c
107ffc
30610c
20610c
40610c
007ffc
00600c
ENDCHAR
STARTCHAR ch-39
ENCODING 39
SWIDTH 1000 0
DWIDTH 24 0
BBX 24 24 0 -3
BITMAP
000e00
000c00
080c06
0fffff
0c0000
8c0610
4c07f8
6c8602
6cffff
0cc006
0cc604
0cc7e0
fcfe08
6cc60c
4cc3fc
0cc000
18a000
18bffc
11b000
313ffc
223000
443000
003ffc
003000
ENDCHAR
STARTCHAR ch-48
ENCODING 48
SWIDTH 1000 0
DWIDTH 24 0
BBX 24 24 0 -3
BITMAP
000e00
080c06
0fffff
0c0000
0c0000
8cfff8
4cc218
6cc218
6cfff8
0cc218
0cc218
0cfff8
fc0c00
6c8880
4c71c0
0c3310
18040c
1bfff6
11fe06
300600
204660
406618
00c60c
03060c
ENDCHAR
STARTCHAR ch-52
ENCODING 52
SWIDTH 1000 0
DWIDTH 24 0
BBX 24 24 0 -3
BITMAP
000e00
000c00
080c06
0fffff
0c0000
8c0380
4c030c
6cfffe
6c1020
0c0842
0dffff
0c0000
fc7ff8
6c6018
4c7ff8
0c6018
186018
187ff8
100300
300306
21ffff
400300
000300
000300
ENDCHAR
STARTCHAR ch-59
ENCODING 59
SWIDTH 1000 0
DWIDTH 24 0
BBX 24 24 0 -3
BITMAP
000e00
080c06
0fffff
0c0000
0c0200
8c7ff0
4c4216
6fffff
6c4210
0c7ff0
0c0200
0c7ff0
fc4210
6c4210
4c7ff0
0c0800
180c06
1fffff
103860
3070c0
206d80
4007e0
001c78
01e018
ENDCHAR
STARTCHAR ch-66
ENCODING 66
SWIDTH 1000 0
DWIDTH 24 0
BBX 24 24 0 -3
BITMAP
000e00
100c06
1fffff
180800
980e00
580c0c
7bfffe
781880
191046
19a024
187ff8
f8e06f
796066
5e7fe0
186060
186060
107fe0
300600
308600
20e660
61c61c
43060e
8c3e06
000c00
ENDCHAR
STARTCHAR ch-70
ENCODING 70
SWIDTH 1000 0
DWIDTH 24 0
BBX 24 24 0 -3
BITMAP
000e00
000c00
080c06
0fffff
0c0000
8c1020
4c52a4
6c54a8
6cb060
0c2c58
0c4488
0c8006
fcffff
6d8006
4d8604
0c0618
18fffc
180c18
100c18
301818
201838
403030
0061f0
018060
ENDCHAR
STARTCHAR ch-71
ENCODING 71
SWIDTH 1000 0
DWIDTH 24 0
BBX 24 24 0 -3
BITMAP
000e00
000c00
080c06
0fffff
0c0000
8c0000
4cfcfc
6cc48c
6cc48c
0cfcfc
0cc48c
0cc48c
fcfcfc
6cc00c
4ccfcc
0cc84c
18c84c
18cfcc
10c84c
30c84c
20cfcc
40c00c
00c03c
00c018
ENDCHAR
STARTCHAR ch-72
ENCODING 72
SWIDTH 1000 0
DWIDTH 24 0
BBX 24 24 0 -3
BITMAP
000e00
000c00
080c06
0fffff
0c0000
8c0620
4cff30
6c0d44
6e1886
0d98c8
0cb060
0c6038
fcffff
6f18ce
4c18c0
0c18c0
19fffc
1818c0
1018c0
3030c2
2030c2
4060c3
00c0ff
03007e
ENDCHAR
STARTCHAR ch-76
ENCODING 76
SWIDTH 1000 0
DWIDTH 24 0
BBX 24 24 0 -3
BITMAP
000e00
000c00
080c06
0fffff
8c0000
4c3ff0
6c3030
6c3030
0c3ff0
0c0000
0c0000
1dfcfe
ed8cc6
6d8cc6
4dfcfe
0c0000
180380
19c307
118306
318306
218306
418306
81fffe
018006
ENDCHAR
STARTCHAR ch-82
ENCODING 82
SWIDTH 1000 0
DWIDTH 24 0
BBX 24 24 0 -3
BITMAP
000e00
100c06
1fffff
180c00
181a00
983180
5860f0
799f3f
7e000e
19f818
190998
f9f998
790998
59f998
190998
190818
113878
311830
300400
226648
626246
466063
8e7fe3
0c3fc0
ENDCHAR
STARTCHAR ch-86
ENCODING 86
SWIDTH 1000 0
DWIDTH 24 0
BBX 24 24 0 -3
BITMAP
000e00
080c06
0fffff
0c0000
8c0038
4c8c30
6cfe32
6ccdff
0ccc00
0ccc88
0ccccc
0cfc48
fcc012
6cc3ff
4cc030
098c30
19fe32
19cdff
13cc30
32cc30
24cc30
48fc30
80cc30
00cc30
ENDCHAR
STARTCHAR ch-88
ENCODING 88
SWIDTH 1000 0
DWIDTH 24 0
BBX 24 24 0 -3
BITMAP
000e00
000c00
080c06
0fffff
0c0000
8c1860
4dfffe
6c1040
6c1040
0c7ff8
0c4208
0c7ff8
fc4208
6c4208
4c7ff8
0d0206
19ffff
198206
118246
318226
21bfe6
419c26
01801e
01800c
ENDCHAR
STARTCHAR ch-92
ENCODING 92
SWIDTH 1000 0
DWIDTH 24 0
BBX 24 24 0 -3
BITMAP
000e00
000c00
080c06
0fffff
0c0000
8d0498
4dfefc
6d0498
6d0498
0dfc98
0d009f
0d488f
fd4900
6dfc0c
4d49fe
0d488c
19488c
1bfe58
120058
324830
266670
44c25c
08808f
010306
ENDCHAR
STARTCHAR ch-97
ENCODING 97
SWIDTH 1000 0
DWIDTH 24 0
BBX 24 24 0 -3
BITMAP
000e00
000c00
080c06
0fffff
0c0000
8cc00c
4c89fe
6c9c18
6ce090
0c8860
0c8c22
0c7dff
fc0026
6c8024
4cf920
0ca124
19213e
1bfd20
102120
306120
205ba0
404a60
00823f
03040e
ENDCHAR
STARTCHAR ch-98
ENCODING 98
SWIDTH 1000 0
DWIDTH 24 0
BBX 24 24 0 -3
BITMAP
000e00
000c00
080c06
0fffff
0c2020
8c3060
4dfffc
6c0200
6cfff8
0c0200
0ffffe
0c1840
fc3220
6c7ff8
4ce02f
0f3fe6
182020
182020
103fe8
30200c
202198
41fe70
00f01c
00800c
ENDCHAR
STARTCHAR ch-103
ENCODING 103
SWIDTH 1000 0
DWIDTH 24 0
BBX 24 24 0 -3
BITMAP
000e00
000c00
080c06
0fffff
0c0000
8c8000
4cfffe
6c8410
6c8410
0cbf7e
0c8c30
0c8f38
fc9557
6ca492
4c8410
0c8000
1980e0
191ccc
1118fe
3318c0
2218c0
4418c6
08ffff
000000
ENDCHAR
STARTCHAR ch-104
ENCODING 104
SWIDTH 1000 0
DWIDTH 24 0
BBX 24 24 0 -3
BITMAP
000e00
000c00
080c06
0fffff
0c0000
8c3ff8
4c8102
6cffff
6d8102
0db938
0c0100
0c793c
fc2080
6c30c0
4c7ffe
0c6080
18fffc
196080
126080
307ffc
206080
406082
007fff
006000
ENDCHAR
STARTCHAR ch-105
ENCODING 105
SWIDTH 1000 0
DWIDTH 24 0
BBX 24 24 0 -3
BITMAP
000e00
000c00
080c06
0fffff
0c0000
8c3002
4c21ff
6ffe30
6c2020
0c20fe
0dfc82
0d2482
fd24fe
6d2482
4dfc82
0c20fe
187082
186882
10acfe
30a400
212448
422066
0020c3
002103
ENDCHAR
STARTCHAR ch-106
ENCODING 106
SWIDTH 1000 0
DWIDTH 24 0
BBX 24 24 0 -3
BITMAP
000e00
000c00
080c06
0fffff
0c0000
8c1030
4c7820
6dc3fe
6c4020
0c43fe
0ff820
0c47ff
fc4000
6ce1fc
4cd904
0cc9fc
194104
1941fc
124104
3441fc
204080
4040c8
004186
004202
ENDCHAR
STARTCHAR ch-108
ENCODING 108
SWIDTH 1000 0
DWIDTH 24 0
BBX 24 24 0 -3
BITMAP
000e00
000c00
080c06
0fffff
0c0000
8c4004
4c6086
6c7e44
6cc44c
0c8808
0dfefe
0e9210
fc9210
6cfe10
4c92fe
0c9210
189210
18fe10
1001ff
310010
215210
434910
064910
060010
ENDCHAR
STARTCHAR ch-112
ENCODING 112
SWIDTH 1000 0
DWIDTH 24 0
BBX 24 24 0 -3
BITMAP
000e00
000c00
080c06
0fffff
0c0000
8c9244
4c9266
6d2464
6c9248
0c927f
0c00c8
0cfcc8
fc8548
6cfc7e
4c0048
0dfe48
192248
19227e
11fe48
310048
210448
410648
01fe7f
00fc40
ENDCHAR
STARTCHAR ch-114
ENCODING 114
SWIDTH 1000 0
DWIDTH 24 0
BBX 24 24 0 -3
BITMAP
000e00
000c00
080c06
0fffff
0c0000
8c3002
4c21ff
6ffe30
6c2020
0dfcfe
0d0482
0dfc82
fd04fe
6d0482
4dfc82
0d04fe
190482
19fc82
1000fe
37ff00
211048
418c66
0304c3
040103
ENDCHAR
STARTCHAR ch-118
ENCODING 118
SWIDTH 1000 0
DWIDTH 24 0
BBX 24 24 0 -3
BITMAP
000000
000000
000000
000000
001840
3ff860
0034c0
006508
10620c
0cc318
0581a0
0300c0
060060
0c0038
18001f
30000e
c00006
000000
000000
000000
000000
000000
000000
000000
ENDCHAR
STARTCHAR ch-120
ENCODING 120
SWIDTH 1000 0
DWIDTH 24 0
BBX 24 24 0 -3
BITMAP
001840
3ff860
0034c0
006508
10620c
0cc318
0581a0
0300c0
060060
0c01b8
1bffdf
30180e
c01806
001800
001818
3ffffc
003400
003400
006200
006300
00c1c0
0180fc
060078
380018
ENDCHAR
STARTCHAR ch-122
ENCODING 122
SWIDTH 1000 0
DWIDTH 24 0
BBX 24 24 0 -3
BITMAP
001840
3ff860
0034c0
006508
10620c
0cc318
0581a0
0300c0
060060
0ffff8
18c31f
30c30e
c0c306
00c300
3ffffc
00c300
00c300
018300
018302
030302
020302
040303
1803ff
6001fe
ENDCHAR
STARTCHAR ch-123
ENCODING 123
SWIDTH 1000 0
DWIDTH 24 0
BBX 24 24 0 -3
BITMAP
001840
1ff8e0
003500
206208
18631c
0cc1a0
0d80c0
030070
06ffbf
0c001e
300006
c3ffc0
0300c0
0300c0
0300c0
0300c0
03ffc0
010100
0081c0
00c180
00c300
00040c
7ffffe
000000
ENDCHAR
STARTCHAR ch-124
ENCODING 124
SWIDTH 1000 0
DWIDTH 24 0
BBX 24 24 0 -3
BITMAP
001820
1ff830
003464
106286
0cc10c
0580d0
030060
060038
0fcfdf
30ccce
c0ccc6
10c8c0
1fd8fc
18107c
182000
1fdff0
18c830
00c460
00c460
01c2c0
018180
038360
1f0c3e
06300c
ENDCHAR
STARTCHAR ch-125
ENCODING 125
SWIDTH 1000 0
DWIDTH 24 0
BBX 24 24 0 -3
BITMAP
002000
003800
003000
002000
104018
1ffffc
180018
180018
180018
180018
180018
180018
180018
1ffff8
180018
180018
180018
180018
180018
180018
180018
1ffff8
180018
180018
ENDCHAR
STARTCHAR ch-126
ENCODING 126
SWIDTH 1000 0
DWIDTH 24 0
BBX 24 24 0 -3
BITMAP
000000
000006
ffffff
007000
006000
004000
004000
088030
0ffff8
0c0030
0c0030
0c0030
0c0030
0c0030
0ffff0
0c0030
0c0030
0c0030
0c0030
0c0030
0c0030
0ffff0
0c0030
0c0030
ENDCHAR
STARTCHAR ch-128
ENCODING 128
SWIDTH 1000 0
DWIDTH 24 0
BBX 24 24 0 -3
BITMAP
002000
003800
103030
1ffff8
180030
180030
180030
1ffff0
180030
180030
180030
1ffff0
180030
000000
0700c0
0607e0
063f00
07e000
060004
060004
060004
060006
07fffe
03fffc
ENDCHAR
STARTCHAR ch-131
ENCODING 131
SWIDTH 1000 0
DWIDTH 24 0
BBX 24 24 0 -3
BITMAP
002000
003800
003000
086030
0ffff8
0c0030
0c0030
0c0030
0ffff0
0c0030
0c0030
0c0030
0ffff0
0c0630
008600
00e600
00c600
00c600
018602
018602
030602
060603
1807ff
e003fe
ENDCHAR
STARTCHAR ch-132
ENCODING 132
SWIDTH 1000 0
DWIDTH 24 0
BBX 24 24 0 -3
BITMAP
080200
0e0380
0c0300
080300
50c306
7fe7ff
60c606
60c406
60cc06
60c806
60d206
7fc106
60c186
60c0c6
60c0c6
60c0c6
60c006
60c006
7fc00c
60c00c
60c00c
600018
0000f8
000030
ENDCHAR
STARTCHAR ch-134
ENCODING 134
SWIDTH 1000 0
DWIDTH 24 0
BBX 24 24 0 -3
BITMAP
0e0700
0c0618
0c063c
0c6660
0ff780
0c0600
0c0604
0c0604
0ce706
0f07fe
fc43fc
707000
406000
07ffe0
060060
060060
060060
07ffe0
060060
060060
060060
060060
07ffe0
060060
ENDCHAR
STARTCHAR ch-135
ENCODING 135
SWIDTH 1000 0
DWIDTH 24 0
BBX 24 24 0 -3
BITMAP
002000
003800
083030
0ffff8
0c0030
0c0030
0ffff0
0c0030
0c0030
0c0030
0ffff0
0c0030
000000
000018
3ffffc
001800
001800
001830
1ffff8
001800
001800
001806
ffffff
000000
ENDCHAR
STARTCHAR ch-136
ENCODING 136
SWIDTH 1000 0
DWIDTH 24 0
BBX 24 24 0 -3
BITMAP
080000
0e1006
0c1fff
499800
7fd800
619800
619800
61980c
619ffe
619a0c
7f9a0c
619918
619918
619990
6198b0
6198e0
7fb040
61b0e0
6020a0
0061b0
004318
00861f
010c0e
003006
ENDCHAR
STARTCHAR ch-139
ENCODING 139
SWIDTH 1000 0
DWIDTH 24 0
BBX 24 24 0 -3
BITMAP
002000
003800
083030
0ffff8
0c0030
0c0030
0ffff0
0c0030
0c0030
0ffff0
0c0030
003800
003006
ffffff
00e200
01c180
071cf0
1c183f
e0180e
07ffe0
001800
001800
001800
001800
ENDCHAR
STARTCHAR ch-142
ENCODING 142
SWIDTH 1000 0
DWIDTH 24 0
BBX 24 24 0 -3
BITMAP
0001c0
080180
0e0180
0c0186
49bfff
7fc000
618820
618e18
618c0c
61980e
619006
7fa420
618438
618230
618260
618160
6181c0
7f8080
6181c0
600360
000638
000c1f
00180e
006006
ENDCHAR
STARTCHAR ch-144
ENCODING 144
SWIDTH 1000 0
DWIDTH 24 0
BBX 24 24 0 -3
BITMAP
004000
007000
086030
0ffff8
0c0030
0c0030
0ffff0
0c0030
0c0030
0c0030
0ffff0
0c0030
001c00
3f99fc
001800
001800
3f99fc
001800
001806
ffffff
001800
001800
001800
001800
ENDCHAR
STARTCHAR ch-147
ENCODING 147
SWIDTH 1000 0
DWIDTH 24 0
BBX 24 24 0 -3
BITMAP
0001c0
081180
0e1d80
0c1980
49998c
7f9ffe
61b180
61a180
61c180
618180
618186
7fffff
618000
618000
619018
619ffc
619818
7f9818
619818
601818
001818
001818
001ff8
001818
ENDCHAR
STARTCHAR ch-150
ENCODING 150
SWIDTH 1000 0
DWIDTH 24 0
BBX 24 24 0 -3
BITMAP
0001c0
100180
1c2180
182186
537fff
7fe006
636004
630000
630018
633ffc
630000
7f0000
63000c
637ffe
630c60
630c60
630c60
7f0c60
630c60
601862
001862
001063
00207f
00c03e
ENDCHAR
STARTCHAR ch-153
ENCODING 153
SWIDTH 1000 0
DWIDTH 24 0
BBX 24 24 0 -3
BITMAP
07000c
06043e
0667e0
fff600
0e0606
0e07ff
1f0630
16c630
366630
266430
460c30
860830
069030
00e000
08c030
0ffff8
0c0030
0c0030
0ffff0
0c0030
0c0030
0c0030
0ffff0
0c0030
ENDCHAR
STARTCHAR ch-154
ENCODING 154
SWIDTH 1000 0
DWIDTH 24 0
BBX 24 24 0 -3
BITMAP
0001c0
10398e
1c318c
18318c
53318c
7fbffc
630000
630000
63ffff
630000
63200c
7f3ffe
63300c
63300c
63300c
633ffc
630010
7f101c
630c18
600630
000620
000046
00ffff
000000
ENDCHAR
STARTCHAR ch-174
ENCODING 174
SWIDTH 1000 0
DWIDTH 24 0
BBX 24 24 0 -3
BITMAP
001c00
001800
001800
001800
10180c
1ffffe
18180c
181808
181810
181800
181860
1ffff0
188060
1840c0
1840c0
182180
183300
181e00
100e00
301b80
2031e0
40c0fe
83003c
1c000c
ENDCHAR
STARTCHAR ch-176
ENCODING 176
SWIDTH 1000 0
DWIDTH 24 0
BBX 24 24 0 -3
BITMAP
030400
020700
020600
22660c
3ff7fe
32640c
324c0c
32480c
320fcc
3210cc
3240cc
3fe0cc
30c8cc
30cfcc
34cc0c
328c1c
338c18
310c78
238c30
62cc02
44cc02
480c03
900fff
0007fe
ENDCHAR
STARTCHAR ch-180
ENCODING 180
SWIDTH 1000 0
DWIDTH 24 0
BBX 24 24 0 -3
BITMAP
1000e0
1c00c0
1800c0
1080c0
2048c6
ffefff
786cc6
230cc4
330cc8
330cc0
23eccc
41effe
900d0c
198d0c
1fcd98
318c98
230cb0
5308e0
8e1840
0410e0
0f11b8
19a31f
21860e
c01806
ENDCHAR
STARTCHAR ch-183
ENCODING 183
SWIDTH 1000 0
DWIDTH 24 0
BBX 24 24 0 -3
BITMAP
0e00e0
0c00c0
0cc0c0
ffe0c0
0c08c6
0c0fff
0d8cc6
7fccc4
000cc8
000cc0
7f8cd8
618ffc
618d18
7f8d18
000d10
410cb0
21cca0
3198e0
331840
0210e0
03b0b8
fe211f
70420e
400c06
ENDCHAR
STARTCHAR ch-184
ENCODING 184
SWIDTH 1000 0
DWIDTH 24 0
BBX 24 24 0 -3
BITMAP
4000e0
4060c0
7ff0c0
c060c0
ce48c6
0c0fff
ffccc6
0c0cc4
0c0cc8
7f8cc0
4c8ccc
4c8ffe
7f8d0c
4c8d0c
4c8d98
4c8c98
7f8cb0
0c08e0
0c1840
ffd0e0
0c11b8
0c231f
0c060e
0c1806
ENDCHAR
STARTCHAR ch-185
ENCODING 185
SWIDTH 1000 0
DWIDTH 24 0
BBX 24 24 0 -3
BITMAP
030800
020806
020fff
225806
3ff8e4
3240c0
325ffe
3280c0
3200c0
320ffc
3248c4
3fe8c4
30cffc
30c8c4
34c8c4
3288c4
338ffc
2100c0
2380c6
62ffff
44c0c0
4800c0
9000c0
0000c0
ENDCHAR
STARTCHAR ch-186
ENCODING 186
SWIDTH 1000 0
DWIDTH 24 0
BBX 24 24 0 -3
BITMAP
200070
306060
3ff060
606060
486466
a967ff
296666
3f6664
086660
10c660
27c66c
4187fe
20068c
30668c
3ff68c
6066d8
486658
a96650
296470
3f6420
086470
10c8dc
27c18f
418606
ENDCHAR
STARTCHAR ch-191
ENCODING 191
SWIDTH 1000 0
DWIDTH 24 0
BBX 24 24 0 -3
BITMAP
000000
100030
1ffff8
18c630
18c630
18c630
18c630
18c630
18c630
18c630
18c630
18c630
18c630
18c630
18c630
18c630
18c630
18c630
18c630
18c630
18c630
18c636
ffffff
000000
ENDCHAR
STARTCHAR ch-194
ENCODING 194
SWIDTH 1000 0
DWIDTH 24 0
BBX 24 24 0 -3
BITMAP
000000
000030
1ffff8
001800
001800
001800
001806
ffffff
001800
001800
001800
001800
00f800
003000
100030
1ffff8
18c630
18c630
18c630
18c630
18c630
18c636
ffffff
000000
ENDCHAR
STARTCHAR ch-195
ENCODING 195
SWIDTH 1000 0
DWIDTH 24 0
BBX 24 24 0 -3
BITMAP
000000
000006
ffffff
001000
001c00
003800
007000
00f380
01b070
07301c
0c300e
303006
c03000
003000
100030
1ffff8
18c630
18c630
18c630
18c630
18c630
18c636
ffffff
000000
ENDCHAR
STARTCHAR ch-198
ENCODING 198
SWIDTH 1000 0
DWIDTH 24 0
BBX 24 24 0 -3
BITMAP
008200
00e100
01c180
0180c0
030070
06003f
0fffde
3060c6
c060c0
00c0c0
00c1c0
018180
030f80
0c0300
700000
080060
0ffff0
0c4460
0c4460
0c4460
0c4460
0c4466
ffffff
000000
ENDCHAR
STARTCHAR ch-200
ENCODING 200
SWIDTH 1000 0
DWIDTH 24 0
BBX 24 24 0 -3
BITMAP
000060
7ffff0
018060
018060
018060
030c66
03feff
020cc6
061806
04d806
0c300c
086c0c
10c618
2306f8
c00030
000000
1ffff0
18c630
18c630
18c630
18c630
18c632
ffffff
000000
ENDCHAR
STARTCHAR ch-202
ENCODING 202
SWIDTH 1000 0
DWIDTH 24 0
BBX 24 24 0 -3
BITMAP
040080
0300e0
0181c0
01c180
00c100
000206
ffffff
010100
01c080
0380c0
030060
060038
0c001f
30000e
c00006
0ffff0
0cc630
0cc630
0cc630
0cc630
0cc630
0cc636
ffffff
000000
ENDCHAR
STARTCHAR ch-205
ENCODING 205
SWIDTH 1000 0
DWIDTH 24 0
BBX 24 24 0 -3
BITMAP
001c00
001800
001830
1ffff8
001800
001800
001806
ffffff
004000
006000
00c180
010060
3fffb0
1fe018
100018
000000
1ffff0
18c630
18c630
18c630
18c630
18c636
ffffff
000000
ENDCHAR
STARTCHAR ch-210
ENCODING 210
SWIDTH 1000 0
DWIDTH 24 0
BBX 24 24 0 -3
BITMAP
003000
003000
006800
006400
00c600
018300
0301c0
06fef0
0c007f
32019e
c3ffc6
030180
030180
030180
03ff80
000000
100030
1ffff8
18c630
18c630
18c630
18c636
ffffff
000000
ENDCHAR
STARTCHAR ch-214
ENCODING 214
SWIDTH 1000 0
DWIDTH 24 0
BBX 24 24 0 -3
BITMAP
020100
0181c0
00c180
00c100
000218
3ffffc
001800
001830
1ffff8
001800
001800
001806
ffffff
000000
000000
100030
1ffff8
18c630
18c630
18c630
18c630
18c636
ffffff
000000
ENDCHAR
STARTCHAR ch-215
ENCODING 215
SWIDTH 1000 0
DWIDTH 24 0
BBX 24 24 0 -3
BITMAP
001000
401c00
301800
18300c
193ffe
026618
044610
0c8520
190c80
f008c0
701870
30303f
30601e
398006
180000
000000
1ffff0
18c630
18c630
18c630
18c630
18c636
ffffff
000000
ENDCHAR
STARTCHAR ch-219
ENCODING 219
SWIDTH 1000 0
DWIDTH 24 0
BBX 24 24 0 -3
BITMAP
001c80
001860
001860
10180c
1ffffe
180c40
18cc70
1fe660
18c6c0
18c380
18c382
1186c2
378c73
23303f
40000e
800000
1ffff0
18c630
18c630
18c630
18c630
18c636
ffffff
000000
ENDCHAR
STARTCHAR ch-220
ENCODING 220
SWIDTH 1000 0
DWIDTH 24 0
BBX 24 24 0 -3
BITMAP
001000
101c00
0c180c
861ffe
66300c
302008
304710
028600
040600
180d00
f00cc0
701870
30303f
38601e
198006
000030
1ffff8
18c630
18c630
18c630
18c630
18c636
ffffff
000000
ENDCHAR
STARTCHAR ch-222
ENCODING 222
SWIDTH 1000 0
DWIDTH 24 0
BBX 24 24 0 -3
BITMAP
01c400
018300
01810c
7ffffe
006000
003990
01e618
3e01f8
00e000
00c600
00c30c
7ffffe
006000
003990
01e618
3e01f8
000000
1ffff0
18c630
18c630
18c630
18c636
ffffff
000000
ENDCHAR
STARTCHAR ch-223
ENCODING 223
SWIDTH 1000 0
DWIDTH 24 0
BBX 24 24 0 -3
BITMAP
00080c
418ffe
7fcc0c
618c0c
618c0c
618ffc
7f8c0c
618c0c
618c0c
618ffc
7f880c
61980c
00100c
00207c
00c018
000000
1ffff0
18c630
18c630
18c630
18c630
18c636
ffffff
000000
ENDCHAR
STARTCHAR ch-225
ENCODING 225
SWIDTH 1000 0
DWIDTH 24 0
BBX 24 24 0 -3
BITMAP
001c00
001818
1ffffc
001818
001818
ffffff
001818
001818
1ffff8
001818
001800
ffffff
088210
10c30c
30c306
e04107
c00003
1ffff0
18c630
18c630
18c630
18c636
ffffff
000000
ENDCHAR
STARTCHAR ch-227
ENCODING 227
SWIDTH 1000 0
DWIDTH 24 0
BBX 24 24 0 -3
BITMAP
406100
7ff1c0
660180
660180
7fe306
6063ff
606600
606400
7fe800
66000c
6603fe
666000
7ff000
600000
100030
1ffff8
18c630
18c630
18c630
18c630
18c630
18c636
ffffff
000000
ENDCHAR
STARTCHAR ch-228
ENCODING 228
SWIDTH 1000 0
DWIDTH 24 0
BBX 24 24 0 -3
BITMAP
040000
070430
2667f8
3ff630
306630
36643f
32641f
306800
fff7f8
706218
326230
326160
2260c0
6061b0
41e61f
80d806
000000
1ffff0
18c630
18c630
18c630
18c636
ffffff
000000
ENDCHAR
STARTCHAR ch-229
ENCODING 229
SWIDTH 1000 0
DWIDTH 24 0
BBX 24 24 0 -3
BITMAP
030000
279c0c
3c187e
30190c
30198c
31fb0c
3e5c7c
305c0c
30da0c
3e9a7c
30990c
3119cc
32788c
30300c
000000
100030
1ffff8
18c630
18c630
18c630
18c630
18c636
ffffff
000000
ENDCHAR
STARTCHAR ch-231
ENCODING 231
SWIDTH 1000 0
DWIDTH 24 0
BBX 24 24 0 -3
BITMAP
001c00
001860
001ff0
101806
1fffff
183006
183fa4
1bf030
181ff0
180000
18ffe0
188420
18ffe0
188420
188420
18ffe0
180000
1bfff8
131118
331118
231118
43111a
9fffff
000000
ENDCHAR
STARTCHAR ch-234
ENCODING 234
SWIDTH 1000 0
DWIDTH 24 0
BBX 24 24 0 -3
BITMAP
102010
0e3ff8
062010
803ff0
702010
303ff0
020006
05ffff
081800
183ffc
f0644c
71888c
303118
38c678
181830
000000
100030
1ffff8
18c630
18c630
18c630
18c636
ffffff
000000
ENDCHAR
STARTCHAR ch-238
ENCODING 238
SWIDTH 1000 0
DWIDTH 24 0
BBX 24 24 0 -3
BITMAP
000000
080030
0ffff8
0c0030
0c0030
0c0030
0c0030
0c0030
0ffff0
0c0030
0c0030
0c0030
0c0030
0c0030
0ffff0
0c0030
0c0030
0c0030
0c0030
0c0030
0c0030
0ffff0
0c0030
0c0030
ENDCHAR
STARTCHAR ch-242
ENCODING 242
SWIDTH 1000 0
DWIDTH 24 0
BBX 24 24 0 -3
BITMAP
001c00
001800
001806
ffffff
0c0000
0c0000
0c0000
0c0000
0ffff8
07fff8
000000
040060
07fff0
060060
060060
07ffe0
060060
060060
07ffe0
060060
060060
07ffe0
060060
060060
ENDCHAR
STARTCHAR ch-244
ENCODING 244
SWIDTH 1000 0
DWIDTH 24 0
BBX 24 24 0 -3
BITMAP
001c00
001800
001806
ffffff
001800
001800
011860
39fff0
318060
318060
31ffe0
318060
318060
318060
31ffe0
318060
318060
318060
31ffe0
318060
300000
300006
3fffff
300000
ENDCHAR
STARTCHAR ch-248
ENCODING 248
SWIDTH 1000 0
DWIDTH 24 0
BBX 24 24 0 -3
BITMAP
070000
06080c
060ffe
060c0c
066c0c
fffc0c
060c0c
060c0c
0e0ffc
0e0c0c
0f0c0c
1ecc0c
166c0c
166c0c
360ffc
260c0c
460c0c
860c0c
060c0c
060c0c
060c0c
060ffc
060c0c
060c0c
ENDCHAR
STARTCHAR ch-251
ENCODING 251
SWIDTH 1000 0
DWIDTH 24 0
BBX 24 24 0 -3
BITMAP
000840
000e40
430c40
7f8c20
631c20
631830
631818
63301c
7f3fef
634606
638600
630600
630618
7f0ffc
630c18
630018
630018
630018
7f0018
630038
600030
000070
0003e0
0000c0
ENDCHAR
STARTCHAR ch-254
ENCODING 254
SWIDTH 1000 0
DWIDTH 24 0
BBX 24 24 0 -3
BITMAP
000070
0003f8
107f00
1fc000
180700
180600
180606
1fffff
180600
180600
188618
18fffc
18c018
18c018
18fff8
18c018
30c018
30fff8
20c018
60c018
40c018
80fff8
00c018
00c018
ENDCHAR
STARTCHAR ch-257
ENCODING 257
SWIDTH 1000 0
DWIDTH 24 0
BBX 24 24 0 -3
BITMAP
001c00
041800
071860
0e1818
0c188e
1818e7
30f9c3
603380
800600
001800
006030
03fff8
0f0030
f30030
03fff0
030030
030030
030030
03fff0
030030
030030
030030
03fff0
030030
ENDCHAR
STARTCHAR ch-260
ENCODING 260
SWIDTH 1000 0
DWIDTH 24 0
BBX 24 24 0 -3
BITMAP
000006
437fff
7f8180
630180
630180
630180
630180
7f3986
6331ff
633186
633186
633186
7f3186
633186
633ffe
633006
630006
630006
7f0006
63000e
60000c
00001c
0000f8
000030
ENDCHAR
STARTCHAR ch-263
ENCODING 263
SWIDTH 1000 0
DWIDTH 24 0
BBX 24 24 0 -3
BITMAP
0001c0
000180
430180
7f8180
631180
631da0
631998
63198c
7f1986
631187
633183
632190
63219c
7f4198
630fb0
630330
630060
6300c0
7f0180
630300
600600
000c00
003000
00c000
ENDCHAR
STARTCHAR ch-264
ENCODING 264
SWIDTH 1000 0
DWIDTH 24 0
BBX 24 24 0 -3
BITMAP
000380
000300
430300
7f8300
632300
632306
633fff
636306
7f6304
636308
630300
6306e0
6306c0
7f06c0
6306c0
6304c0
630cc0
630cc0
7f08c2
6318c2
6010c2
0020c3
0040ff
01807e
ENDCHAR
STARTCHAR ch-265
ENCODING 265
SWIDTH 1000 0
DWIDTH 24 0
BBX 24 24 0 -3
BITMAP
10000c
1ffffe
18180c
18180c
18180c
18180c
1ffffc
180000
180000
190018
19fffc
198018
198018
198018
19fff8
198018
118018
118018
31fff8
218018
218018
418018
81fff8
018018
ENDCHAR
STARTCHAR ch-267
ENCODING 267
SWIDTH 1000 0
DWIDTH 24 0
BBX 24 24 0 -3
BITMAP
0000f0
000ff8
1fff00
003000
003018
3ffffc
006000
004006
ffffff
018000
030000
020018
07fffc
0d8018
198018
31fff8
c18018
018018
01fff8
018018
018018
018018
01fff8
018018
ENDCHAR
STARTCHAR ch-268
ENCODING 268
SWIDTH 1000 0
DWIDTH 24 0
BBX 24 24 0 -3
BITMAP
008030
00fff8
1cc030
18c030
18fff0
18c030
18c030
18c030
18fff0
18c030
18c030
18c030
18fff0
18c030
180006
1fffff
181800
021980
039860
071838
0e181c
18180e
601806
001800
ENDCHAR
STARTCHAR ch-283
ENCODING 283
SWIDTH 1000 0
DWIDTH 24 0
BBX 24 24 0 -3
BITMAP
000380
000300
430300
7f8300
630318
637ffc
630300
630300
7f0300
630300
630306
63ffff
630f40
7f0f40
631b40
631b20
631320
633330
7f2318
63431f
60830e
030306
000300
000300
ENDCHAR
STARTCHAR ch-286
ENCODING 286
SWIDTH 1000 0
DWIDTH 24 0
BBX 24 24 0 -3
BITMAP
0700c0
060fe0
07fc00
060010
060018
07fff8
03fff0
000000
39ffe0
318060
318060
31ffe0
318060
318060
31ffe0
318060
318060
31ffe0
300006
3fffff
308000
01e1f0
07803c
38000c
ENDCHAR
STARTCHAR ch-287
ENCODING 287
SWIDTH 1000 0
DWIDTH 24 0
BBX 24 24 0 -3
BITMAP
001c00
001800
00180c
7ffffe
001800
001800
07ffe0
060060
060060
07ffe0
060060
060060
07ffe0
060060
060060
07ffe0
000000
000006
ffffff
000000
018380
03c070
0e001c
70000c
ENDCHAR
STARTCHAR ch-288
ENCODING 288
SWIDTH 1000 0
DWIDTH 24 0
BBX 24 24 0 -3
BITMAP
00100c
419ffe
7fd80c
61980c
61980c
61980c
61980c
7f9ffc
6198cc
6198c0
6198c0
6198c6
7f9fff
6198c0
6198c0
6198c0
619860
619860
7f9862
619832
6019ba
60fe1f
00700f
004006
ENDCHAR
STARTCHAR ch-292
ENCODING 292
SWIDTH 1000 0
DWIDTH 24 0
BBX 24 24 0 -3
BITMAP
00200c
433ffe
7fb00c
63300c
63300c
63300c
633ffc
7f300c
633000
633380
633300
633308
7f330e
63331c
633338
633360
636380
7f6300
634302
60c302
008302
010303
0203ff
0001fe
ENDCHAR
STARTCHAR ch-293
ENCODING 293
SWIDTH 1000 0
DWIDTH 24 0
BBX 24 24 0 -3
BITMAP
01c380
018300
398318
31b33c
31fb70
318380
318302
318302
318303
31fbff
ff81fe
780000
400000
0ffff0
0c0030
0c0030
0ffff0
0c0030
0c0030
0ffff0
0c0030
0c0030
0ffff0
0c0030
ENDCHAR
STARTCHAR ch-294
ENCODING 294
SWIDTH 1000 0
DWIDTH 24 0
BBX 24 24 0 -3
BITMAP
000e70
000c60
460c60
7f0c60
660c60
664c60
664c64
664c67
7e4c66
664d6c
664ff8
664c60
664c60
7e4c60
664c60
664c60
664c60
664c60
7e4c62
664c62
604fe2
01fe63
00f07f
00803e
ENDCHAR
STARTCHAR ch-297
ENCODING 297
SWIDTH 1000 0
DWIDTH 24 0
BBX 24 24 0 -3
BITMAP
0001c0
000180
418180
7fc180
618186
61bfff
618100
6181c0
7f8180
618100
619210
618c1c
618638
7f8330
618370
618060
6180c0
618180
7f8108
618204
600406
007ffb
003f03
002003
ENDCHAR
STARTCHAR ch-311
ENCODING 311
SWIDTH 1000 0
DWIDTH 24 0
BBX 24 24 0 -3
BITMAP
081040
061c70
0318e0
033880
003118
3ffffc
006400
006400
00c206
ffffff
018180
0300c0
060070
0fffff
3300de
c300c6
03ffc0
0300c0
0300c0
03ffc0
0300c0
0300c0
03ffc0
0300c0
ENDCHAR
STARTCHAR ch-312
ENCODING 312
SWIDTH 1000 0
DWIDTH 24 0
BBX 24 24 0 -3
BITMAP
000200
000380
430300
7f8610
630408
63080c
637ff6
633e06
7f2000
6301c0
631180
63198c
631ffe
7f3180
632180
634180
630186
63ffff
7f0180
630180
600180
000180
000180
000180
ENDCHAR
STARTCHAR ch-314
ENCODING 314
SWIDTH 1000 0
DWIDTH 24 0
BBX 24 24 0 -3
BITMAP
460ce0
7f0cc0
660cc0
660cc0
660cc4
668cc7
664cc6
7e6ccc
666cd0
666ce0
660cc0
660cc0
660cd0
7e1ccc
67ecc6
66ccc3
668cc3
660cc0
6618c2
7e18c2
6630c3
6060ff
00c07e
030000
ENDCHAR
STARTCHAR ch-316
ENCODING 316
SWIDTH 1000 0
DWIDTH 24 0
BBX 24 24 0 -3
BITMAP
431018
7f9ffc
631818
631818
631818
631ff8
631818
7f1818
631818
631818
631ff8
631904
631907
7f190e
631898
6318a0
6318c0
631840
631860
631930
7f1e38
60f81f
00600e
004006
ENDCHAR
STARTCHAR ch-320
ENCODING 320
SWIDTH 1000 0
DWIDTH 24 0
BBX 24 24 0 -3
BITMAP
020100
0181c0
00c180
00c20c
7ffffe
001800
001800
1ffff0
001800
001806
ffffff
018000
010000
03fff0
078030
0d8030
19fff0
318030
c18030
01fff0
018030
018030
01fff0
018030
ENDCHAR
STARTCHAR ch-327
ENCODING 327
SWIDTH 1000 0
DWIDTH 24 0
BBX 24 24 0 -3
BITMAP
000020
001038
430c30
7f8620
63064c
633ffe
63018c
63018c
7f218c
633ffc
63318c
633180
633180
7f3186
637fff
636386
630786
630786
7f0d8e
63198c
6031bc
006198
018180
000180
ENDCHAR
STARTCHAR ch-346
ENCODING 346
SWIDTH 1000 0
DWIDTH 24 0
BBX 24 24 0 -3
BITMAP
002006
433fff
7fb000
6330e0
6330c0
6330d8
6337fc
7f30c0
6330c0
6330cc
6337fe
633000
7f3000
6330e0
6330c0
6330cc
6337fe
7f60c0
6360c0
6040c0
00c0c0
0080c6
011fff
000000
ENDCHAR
STARTCHAR ch-347
ENCODING 347
SWIDTH 1000 0
DWIDTH 24 0
BBX 24 24 0 -3
BITMAP
0001c0
000180
430184
7fbffe
630180
630188
631ffc
630180
7f0182
637fff
630000
631018
631ffc
7f1818
631818
631ff8
631818
631818
7f1ff8
631818
601818
001818
0018f8
001830
ENDCHAR
STARTCHAR ch-353
ENCODING 353
SWIDTH 1000 0
DWIDTH 24 0
BBX 24 24 0 -3
BITMAP
000038
4301fc
7f9f80
630180
630180
630184
637ffe
7f1998
631998
631998
63199a
63ffff
7f1998
631998
631998
631998
631998
637ffe
7f0180
630180
600180
000186
00ffff
000000
ENDCHAR
STARTCHAR ch-355
ENCODING 355
SWIDTH 1000 0
DWIDTH 24 0
BBX 24 24 0 -3
BITMAP
038000
03100c
03fbfe
03010c
03090c
fffc98
2300d8
3b4070
333070
6318dc
4f198f
860606
000000
0ffff0
0c0030
0c0030
0ffff0
0c0030
0c0030
0ffff0
0c0030
0c0030
0ffff0
0c0030
ENDCHAR
STARTCHAR ch-357
ENCODING 357
SWIDTH 1000 0
DWIDTH 24 0
BBX 24 24 0 -3
BITMAP
000100
0001c0
430180
7fa20c
633ffe
63318c
63318c
63318c
7f3ffc
63318c
63318c
63318c
633ffc
7f0800
630ce0
6318c0
6320c6
63ffff
7f00c0
6300c0
6000c0
0000c0
0000c0
0000c0
ENDCHAR
STARTCHAR ch-358
ENCODING 358
SWIDTH 1000 0
DWIDTH 24 0
BBX 24 24 0 -3
BITMAP
000380
430300
7f8318
633ffc
630300
630300
630306
7fffff
630c60
630c60
631860
63107e
7f203e
63c380
630300
630300
630318
637ffc
7f0300
630300
600300
000306
01ffff
000000
ENDCHAR
STARTCHAR ch-360
ENCODING 360
SWIDTH 1000 0
DWIDTH 24 0
BBX 24 24 0 -3
BITMAP
000300
00278c
433c3e
7fb00c
63300c
63300c
633e7c
63300c
7f300c
63300c
63300c
633ffc
63306c
7f0860
630e60
630c60
630c60
630c60
7f1862
631862
603062
002063
00407f
01803e
ENDCHAR
STARTCHAR ch-363
ENCODING 363
SWIDTH 1000 0
DWIDTH 24 0
BBX 24 24 0 -3
BITMAP
000380
000300
43030c
7ffffe
630300
630318
633ffc
630318
7f031a
63ffff
630318
630318
633ff8
7f0318
632300
633b00
63330c
6333fe
7f3300
632b00
606700
0043c0
0080ff
01003e
ENDCHAR
STARTCHAR ch-377
ENCODING 377
SWIDTH 1000 0
DWIDTH 24 0
BBX 24 24 0 -3
BITMAP
000380
000304
430307
7f8336
633ffc
63030c
630318
630330
7f0366
637fff
630180
630300
63060c
7f0ffe
633c0c
63cc0c
630c0c
630ffc
7f0c0c
630c0c
600c0c
000ffc
000c0c
000c0c
ENDCHAR
STARTCHAR ch-382
ENCODING 382
SWIDTH 1000 0
DWIDTH 24 0
BBX 24 24 0 -3
BITMAP
004000
007000
20600c
3ffffe
30c30c
30c30c
3ffffc
301c0c
001860
0ffff0
001800
001806
ffffff
010100
00c180
004230
1ffff8
001800
00180c
7ffffe
001800
001800
001800
001800
ENDCHAR
STARTCHAR ch-383
ENCODING 383
SWIDTH 1000 0
DWIDTH 24 0
BBX 24 24 0 -3
BITMAP
001c00
001860
001ff0
101800
101806
3fffff
300006
63ffc4
600008
021980
073860
0c7438
30e218
018180
07fff0
1b00ff
e3ffce
0300c0
0300c0
03ffc0
0300c0
0300c0
03ffc0
0300c0
ENDCHAR
STARTCHAR ch-395
ENCODING 395
SWIDTH 1000 0
DWIDTH 24 0
BBX 24 24 0 -3
BITMAP
0001c0
000180
430186
7f7fff
630180
631198
631ffc
631818
7f1818
631ff8
631818
631818
631ff8
7f1818
631818
631ff8
631818
630006
7f7fff
630800
600e30
000c0c
001806
006006
ENDCHAR
STARTCHAR ch-398
ENCODING 398
SWIDTH 1000 0
DWIDTH 24 0
BBX 24 24 0 -3
BITMAP
0001c0
001180
431186
7fbfff
636006
6361c4
630188
631ffc
7f0180
630188
631ffc
630180
630182
7f7fff
630000
630000
631018
631ffc
7f1818
631818
601818
001818
001ff8
001818
ENDCHAR
STARTCHAR ch-401
ENCODING 401
SWIDTH 1000 0
DWIDTH 24 0
BBX 24 24 0 -3
BITMAP
001000
001006
433fff
7fe006
636004
631018
631ffc
631818
7f1818
631ff8
631818
631818
631ff8
7f1818
6301c0
630186
637fff
630000
7f0840
630e30
600c18
00180c
00300e
00c006
ENDCHAR
STARTCHAR ch-414
ENCODING 414
SWIDTH 1000 0
DWIDTH 24 0
BBX 24 24 0 -3
BITMAP
001c38
001830
441832
7fffff
641830
641830
641ff0
640100
7c8106
64ffff
64c106
64c106
64d966
7cc926
64c926
64c926
64dd76
64d556
7ce79e
64c106
60c106
00c106
00c11e
00c00c
ENDCHAR
STARTCHAR ch-416
ENCODING 416
SWIDTH 1000 0
DWIDTH 24 0
BBX 24 24 0 -3
BITMAP
0001c8
00218e
43198c
7f8d98
630da0
632186
633fff
636006
7f6004
631ff8
631818
631818
631818
7f1ff8
630000
6301c0
63018c
633ffe
7f0180
630180
600180
000186
00ffff
000000
ENDCHAR
STARTCHAR ch-421
ENCODING 421
SWIDTH 1000 0
DWIDTH 24 0
BBX 24 24 0 -3
BITMAP
431080
3238e0
1220c0
024186
7ff1ff
421210
4a951c
4a5098
4a50b0
521040
4270a0
423118
40060f
07ffe6
060060
060060
07ffe0
060060
060060
07ffe0
060060
060060
07ffe0
060060
ENDCHAR
STARTCHAR ch-428
ENCODING 428
SWIDTH 1000 0
DWIDTH 24 0
BBX 24 24 0 -3
BITMAP
00001c
4603fe
7f7f08
66040e
66430c
663198
661990
7e9826
66ffff
678006
67a038
663630
663e34
7e67fe
664530
668d30
674d30
663932
661fff
7e3030
662030
604030
008030
030030
ENDCHAR
STARTCHAR ch-429
ENCODING 429
SWIDTH 1000 0
DWIDTH 24 0
BBX 24 24 0 -3
BITMAP
000380
460300
7f0306
66ffff
660684
668446
666c68
7e2830
66101c
663fff
665836
669830
661ff0
7e1830
661830
661ff0
660180
662190
66398c
7e3186
666187
60c183
010780
000300
ENDCHAR
STARTCHAR ch-432
ENCODING 432
SWIDTH 1000 0
DWIDTH 24 0
BBX 24 24 0 -3
BITMAP
000040
000670
46ff60
7e3060
663060
663366
67ffff
664648
7e464e
66464c
667e8c
6646ac
664628
7e4628
667e28
664618
664610
664610
7e4638
665e28
61e62c
00c66f
000646
000686
ENDCHAR
STARTCHAR ch-435
ENCODING 435
SWIDTH 1000 0
DWIDTH 24 0
BBX 24 24 0 -3
BITMAP
000380
430300
7f830c
637ffe
631040
630c60
630440
7f0086
63ffff
630000
633ff8
633118
633118
7f3ff8
633118
633118
633ff8
630100
630108
7f7ffc
630100
600102
01ffff
000000
ENDCHAR
STARTCHAR ch-438
ENCODING 438
SWIDTH 1000 0
DWIDTH 24 0
BBX 24 24 0 -3
BITMAP
0001c0
00218c
433ffe
7fb18c
63318c
633ffc
630180
630182
7fffff
630000
633ffc
63300c
63300c
7f3ffc
63300c
63300c
633ffc
63300c
7f300c
633ffc
600800
001c38
00380e
00c006
ENDCHAR
STARTCHAR ch-441
ENCODING 441
SWIDTH 1000 0
DWIDTH 24 0
BBX 24 24 0 -3
BITMAP
000018
0001fc
463f80
7f0008
66220c
661988
664892
667fff
7ec206
66c184
660c80
662c2c
666c36
7e67f6
660800
660c30
661ff8
661030
7e2860
66c4c0
600380
0006e0
00183f
00e00e
ENDCHAR
STARTCHAR ch-443
ENCODING 443
SWIDTH 1000 0
DWIDTH 24 0
BBX 24 24 0 -3
BITMAP
000800
000c60
431ff0
7f9040
632086
637fff
63b330
633330
7f323e
63341e
633800
6333fc
633000
7f3fff
633000
6333fc
633000
6333fc
7f2000
6327fe
606606
004606
0087fe
000606
ENDCHAR
STARTCHAR ch-444
ENCODING 444
SWIDTH 1000 0
DWIDTH 24 0
BBX 24 24 0 -3
BITMAP
000300
000300
430680
7f8640
630c60
631838
63301f
636fee
7f8006
630000
63264c
633f7e
63264c
7f264c
63264c
633e7c
630000
631020
7f1c38
631830
603668
002244
004086
008106
ENDCHAR
STARTCHAR ch-445
ENCODING 445
SWIDTH 1000 0
DWIDTH 24 0
BBX 24 24 0 -3
BITMAP
070070
062060
fff066
060fff
7fe060
000060
3fc7fe
20410c
3fc118
0100b0
218060
1100f0
13e39f
fe0c0e
700006
47ffe0
060060
07ffe0
060060
07ffe0
060060
060060
07ffe0
060060
ENDCHAR
STARTCHAR ch-447
ENCODING 447
SWIDTH 1000 0
DWIDTH 24 0
BBX 24 24 0 -3
BITMAP
20c418
3fe7fc
30c618
3fc7f8
30c618
30c618
3fc7f8
30c618
30c618
3fc7f8
040800
070e00
060c08
0ffffc
1c0c00
3c0c10
cffff8
0c0c00
0c0c10
0ffff8
0c0c00
0c0c04
0ffffe
0c0000
ENDCHAR
STARTCHAR ch-455
ENCODING 455
SWIDTH 1000 0
DWIDTH 24 0
BBX 24 24 0 -3
BITMAP
000738
000630
437fff
7f8630
632636
633fff
636006
636004
7f0ff0
630000
630006
637fff
630180
7f0308
63058e
63198c
6362d0
6304e0
7f19d0
6362d8
6004cf
0018ce
0067c6
000180
ENDCHAR
STARTCHAR ch-461
ENCODING 461
SWIDTH 1000 0
DWIDTH 24 0
BBX 24 24 0 -3
BITMAP
104208
1fe3fc
104208
1fc3f8
104208
1fc3f8
104208
1fc3f8
020800
070c00
0ffff8
1c0800
3ffff0
cc0800
0ffff0
0c0800
0ffffc
000000
3ffff0
0101c0
00e700
003c00
07e7ff
fc007e
ENDCHAR
STARTCHAR ch-471
ENCODING 471
SWIDTH 1000 0
DWIDTH 24 0
BBX 24 24 0 -3
BITMAP
000e00
000c0c
3ffffe
000c00
0effc0
0c8040
0cffc0
0c8040
0cffc0
0c804c
0ffffe
0c0000
030030
022022
fff7ff
020020
4fc4fc
484484
4fc4fc
484484
4fc4fc
484484
7ff7ff
400400
ENDCHAR
STARTCHAR ch-474
ENCODING 474
SWIDTH 1000 0
DWIDTH 24 0
BBX 24 24 0 -3
BITMAP
008006
44ffff
7e8006
64fffe
648000
649c9c
648080
7c9c9c
648000
64bffe
64a222
64a222
7cbffe
648c00
649ffe
64b206
64dfe6
7c9226
659226
611fe6
030206
02028c
043ffc
001c58
ENDCHAR
STARTCHAR ch-475
ENCODING 475
SWIDTH 1000 0
DWIDTH 24 0
BBX 24 24 0 -3
BITMAP
000060
1ffff0
0001c0
000300
00c400
003800
001c00
000c00
000006
ffffff
001c0c
003c08
003c10
006c00
006c00
00cc00
018c00
030c00
060c00
0c0c00
300c00
c00c00
007c00
001800
ENDCHAR
STARTCHAR ch-476
ENCODING 476
SWIDTH 1000 0
DWIDTH 24 0
BBX 24 24 0 -3
BITMAP
00c180
7fe180
0181c0
010340
120360
0c0320
060630
064618
ffec1f
06c80e
0693e6
0e2000
0e0000
0e0018
1e0ffc
160018
360018
260038
460030
860030
060030
060070
3e0060
0c0060
ENDCHAR
STARTCHAR ch-482
ENCODING 482
SWIDTH 1000 0
DWIDTH 24 0
BBX 24 24 0 -3
BITMAP
020000
038000
030000
030030
07fff8
061800
0c1800
081800
101800
201800
001806
ffffff
003400
003400
006200
006200
00c100
00c180
0180c0
030060
060038
0c001f
30000e
c00006
ENDCHAR
STARTCHAR ch-483
ENCODING 483
SWIDTH 1000 0
DWIDTH 24 0
BBX 24 24 0 -3
BITMAP
004000
007000
00e080
00c060
018030
0203f8
1ffe18
0fc018
080000
070000
060030
07fff8
0c1800
081800
101806
ffffff
003400
007600
006300
00e380
01c1e0
0380fe
0e007c
70001c
ENDCHAR
STARTCHAR ch-485
ENCODING 485
SWIDTH 1000 0
DWIDTH 24 0
BBX 24 24 0 -3
BITMAP
080000
0e0000
0c0000
0c0206
1833ff
1ffb06
330306
230306
430306
030306
031b06
ffff06
030306
030306
030306
030306
068306
064306
066306
0c3306
0c33fe
183306
300306
c00000
ENDCHAR
STARTCHAR ch-487
ENCODING 487
SWIDTH 1000 0
DWIDTH 24 0
BBX 24 24 0 -3
BITMAP
2000c7
387fe6
3000c6
3000c6
3180c6
3fd0c6
6c1fc6
4c18c6
8c1806
0c1806
0cd806
fff8c6
0c1fe6
0c30c6
0c30c6
0c00c6
1a00c6
1980c6
10c0c6
30c1c6
200186
400386
801f06
000606
ENDCHAR
STARTCHAR ch-489
ENCODING 489
SWIDTH 1000 0
DWIDTH 24 0
BBX 24 24 0 -3
BITMAP
100806
1c0fff
180c00
180c00
30cc00
3fec00
260c0c
460ffe
860c0c
060c0c
066c0c
fffc0c
060c0c
060c0c
060ffc
060c0c
0d0c00
0c8c00
08cc00
186c00
106c00
206c06
c00fff
000c00
ENDCHAR
STARTCHAR ch-493
ENCODING 493
SWIDTH 1000 0
DWIDTH 24 0
BBX 24 24 0 -3
BITMAP
100000
1c000c
183ffe
180000
30c000
3fe818
660ffc
460c18
860c18
060c18
066c18
fffc18
060ff8
060c18
060000
050810
0c841c
0cc618
08c618
18c630
100020
200046
407fff
800000
ENDCHAR
STARTCHAR ch-494
ENCODING 494
SWIDTH 1000 0
DWIDTH 24 0
BBX 24 24 0 -3
BITMAP
200018
38007c
3003e0
303f80
200180
7f8186
4c7fff
8c07a0
0c0db0
0c0d98
ffd99c
0c318f
0cc186
0c0300
0c0306
1a7fff
190618
118e30
319c30
201b60
4001c0
800378
000e1e
007006
ENDCHAR
STARTCHAR ch-495
ENCODING 495
SWIDTH 1000 0
DWIDTH 24 0
BBX 24 24 0 -3
BITMAP
100030
1c03f8
183f00
180306
107fff
3f8620
2c0610
4c0c18
0c0fec
ffd42f
0c2426
0cc7e0
0c0000
0c4006
0c7fff
0a6006
1b6006
1367e6
306426
206426
4067e6
806006
00603e
00600c
ENDCHAR
STARTCHAR ch-499
ENCODING 499
SWIDTH 1000 0
DWIDTH 24 0
BBX 24 24 0 -3
BITMAP
000000
000006
ffffff
007000
006000
006000
00c000
00c000
018000
018000
030018
03fffc
078018
0d8018
198018
318018
c18018
018018
018018
018018
018018
01fff8
018018
018018
ENDCHAR
STARTCHAR ch-508
ENCODING 508
SWIDTH 1000 0
DWIDTH 24 0
BBX 24 24 0 -3
BITMAP
000000
00000c
00cffe
ffe0c0
0c00c0
0c00c0
0800c0
1800c0
1800c0
1180c0
3fc0c0
3180c0
7180c0
b180c0
3180c0
3180c0
3180c0
3180c0
3180c0
3f80c0
3180c0
3000c6
001fff
000000
ENDCHAR
ENDFONT
